PathFileType	4	(X/Y/Z)	Patient4_TMGait_0pt5_02_left_33.trc.trc
DataRate	CameraRate	NumFrames	NumMarkers	Units	OrigDataRate	OrigDataStartFrame	OrigNumFrames
80.924855491330	80.924855491330	7	33	mm	80.924855491330	36	       141
Frame#	Time	Sacral			L.Shoulder			Chest			R.Shoulder			Neck			R.ASIS			L.ASIS			R.Thigh.Superior			R.Thigh.Lateral			R.Thigh.Inferior			R.Patella			L.Thigh.Superior			L.Thigh.Lateral			L.Thigh.Inferior			L.Patella			L.Shank.Superior			L.Shank.Lateral			L.Shank.Inferior			R.Shank.Superior			R.Shank.Lateral			R.Shank.Inferior			R.Heel			R.Midfoot.Superior			R.Midfoot.Lateral			R.Toe			L.Heel			L.Midfoot.Lateral			L.Midfoot.Superior			L.Toe			L.Elbow			L.Wrist			R.Elbow			R.Wrist			
		X1	Y1	Z1	X2	Y2	Z2	X3	Y3	Z3	X4	Y4	Z4	X5	Y5	Z5	X6	Y6	Z6	X7	Y7	Z7	X8	Y8	Z8	X9	Y9	Z9	X10	Y10	Z10	X11	Y11	Z11	X12	Y12	Z12	X13	Y13	Z13	X14	Y14	Z14	X15	Y15	Z15	X16	Y16	Z16	X17	Y17	Z17	X18	Y18	Z18	X19	Y19	Z19	X20	Y20	Z20	X21	Y21	Z21	X22	Y22	Z22	X23	Y23	Z23	X24	Y24	Z24	X25	Y25	Z25	X26	Y26	Z26	X27	Y27	Z27	X28	Y28	Z28	X29	Y29	Z29	X30	Y30	Z30	X31	Y31	Z31	X32	Y32	Z32	X33	Y33	Z33	

36	42.952500000000	729.947890270171	1010.332408962043	486.799987825721	892.684438593094	1440.439721246745	317.258013274769	1006.435184438966	1362.511216003270	467.433008114062	936.532476068365	1431.677845245944	649.816686905245	903.033559245067	1495.178793219633	470.641521525703	955.192728291786	938.334155305050	598.609580378845	938.639028263263	960.689400660636	324.865126805381	959.973227859418	726.632404835298	577.961213045007	858.168741584636	632.174738180584	639.113856765077	928.037310827842	563.137303761051	566.931119955097	908.574712392060	464.362462114995	580.384530860727	1003.705605083208	766.099084772111	361.153634317640	936.648996275774	639.841758665827	294.666005055371	1029.038400000623	571.952606905038	360.126533710748	1038.334424636914	499.907557891944	367.023639548816	1016.706061721593	426.576751435467	357.250931462289	937.499023000195	306.647566349598	302.170415329488	996.384798948892	198.175338365179	371.536826648940	845.480343507963	392.237480801723	583.770077723007	736.528693867675	325.591392375960	641.879729270529	745.701779275183	218.199395094709	585.312314062152	562.695499972406	95.377672262921	554.530282824288	741.360518690980	103.134212532871	586.856550359711	642.082575952020	60.434385463386	624.819079189971	844.366747599864	36.195566885090	608.144613327178	877.551408892598	38.350568698494	407.617204707228	954.465439728943	36.186038003306	329.581221984978	1035.906168411895	97.918367725876	358.835673276868	1165.533751148243	46.924379268610	335.757015556127	781.648411002137	1107.960681463057	198.341192735356	837.259361685382	851.541189797082	182.212814360148	998.688273130858	1095.794358088362	772.024549746052	1241.012569398520	1041.555594835778	717.164075328224	
37	42.964857142857	730.028693382997	1011.157567554132	483.454252728610	894.723861667804	1440.915495904795	313.884220768955	1007.309256702847	1363.062563788716	464.933452676955	936.287850855129	1432.690567882374	646.721680395393	904.068752661163	1495.810806412042	467.199156467405	954.595208764659	939.140826066831	596.254397699651	939.491224365544	961.004623244716	322.591361392735	962.799121236758	727.816520516398	576.693719639583	862.710458120323	632.070817444054	637.937374991975	934.373286875116	563.569804270673	566.320277103318	915.878035840407	463.283939939618	581.149985211168	1003.529416424298	765.408656027307	357.921270613357	934.139370299650	639.611989411740	292.856766536840	1026.295847762228	571.078711129905	357.797645547272	1034.954476868793	499.366919090945	365.587475578201	1013.050487378188	426.060462335863	356.121931099593	933.378908973466	306.443531764740	301.016209575193	991.186941270713	197.854534378795	371.095817971340	850.583604511749	392.268262276381	584.052592317726	739.557020848268	328.834462169252	641.891683029176	746.243557022846	220.930195043473	585.967001279263	559.957939507837	103.943541900897	555.135954550807	738.643757390331	104.690846551953	587.585396235777	637.842380586900	65.364520539590	625.073660303176	838.474359471026	35.707207511365	608.188791561034	871.364745277474	38.339691342183	407.502552466637	948.266634323668	36.090735813725	329.427265778400	1029.794827134693	97.759726667846	358.706595084534	1159.450301708014	46.538979201189	335.658530108085	785.726868284381	1108.216260711246	193.354739824128	847.899321557395	853.289587191177	177.381838172684	989.499573073733	1095.353132609487	770.326112631232	1229.662165465323	1026.246194383814	720.626411774683	
38	42.977214285714	729.945946085841	1011.796047725452	480.228832529563	896.849799101201	1441.190102544591	310.529039761575	1008.167039195234	1363.407154695032	462.507858792915	935.957414179405	1433.503625481444	643.668541546031	905.106743048453	1496.274193515444	463.770967565454	953.864370891531	939.766238581491	594.053150624796	940.194940734564	961.095293276439	320.496664123426	966.130347838580	729.074390518646	575.520659378165	868.064387481167	631.829081972742	636.821935471745	941.615420578834	564.064777518738	565.670055029384	924.140546067937	462.271166792044	581.732728913554	1003.111364235281	764.482777024282	354.785065363026	931.484608077242	639.287078624340	291.073201479008	1023.381947084845	570.152718214350	355.572685950114	1031.432068051976	498.761043411730	364.121189721461	1009.262169948165	425.482548011191	354.947796383165	929.114951964693	306.156555614695	299.893869277365	985.926696377063	197.481318200306	370.643185597185	856.688763682100	392.317361465798	584.216020298072	743.657053242585	332.290252276866	641.868255227926	747.556327255149	224.010734293560	586.526089550613	558.025440501790	113.640779792148	555.644964488388	736.413027451267	106.764045975463	588.389638812273	634.043888242406	71.254428413834	625.267262257927	832.632342403734	35.042591999557	608.351349901138	865.124856630217	38.304677808119	407.399310316620	942.024073636082	35.977155201438	329.289410224162	1023.652135234113	97.550442994324	358.616965180039	1153.329782220800	46.076413864155	335.620075916848	789.737709743535	1108.392211963624	188.248346977868	858.821155869850	855.223042795778	172.451719798874	980.017527746990	1094.850232360639	768.392873173875	1216.996904186863	1010.823579020150	724.120102045760	
39	42.989571428571	729.684306242011	1012.238025432569	477.165450553131	899.032211719033	1441.246021895339	307.232528037922	1008.990491310078	1363.528540441386	460.187859536902	935.546942444980	1434.112052952673	640.691949395628	906.145148489452	1496.562743325243	460.392340561961	953.009653206609	940.203199305661	592.031535405530	940.714500445195	960.988871201891	318.575080663945	969.911659871669	730.446443989190	574.381405477454	874.205256229539	631.515629159959	635.740511279365	949.683739410041	564.692444142000	564.922706199485	933.299503624611	461.409033342430	582.054843761760	1002.439714795793	763.406563121951	351.858104791671	928.817352890711	638.927888790219	289.313795541188	1020.368560740135	569.225320697366	353.510892655037	1027.821814652977	498.106753807833	362.650339684981	1005.391706676809	424.859045880674	353.747404344934	924.764254139920	305.812264687031	298.797669749772	980.635347986747	197.074460036766	370.181488785488	863.747138551296	392.445408343990	584.206342052318	748.811863465019	335.986671898086	641.764835447544	749.648449864431	227.490804142849	586.947046361891	557.010636627203	124.479844269504	556.023606251287	734.711401865998	109.443365185757	589.236337403747	630.785255751310	78.175328603046	625.382112825987	826.887697686557	34.200357033674	608.639859563860	858.860771844935	38.254575733062	407.300567238137	935.762902152384	35.858739947502	329.158723405032	1017.494155377160	97.317080526343	358.549051605479	1147.189518767270	45.581339723855	335.614427224778	793.746412367508	1108.449788389196	183.025337078587	870.003200415534	857.312302525717	167.430676087020	970.268283055121	1094.286747058542	766.251728752138	1202.979421647826	995.376911673220	727.627011505578	
40	43.001928571429	729.236460448069	1012.494822587992	474.296374911340	901.225557735127	1441.087467705431	304.039281328133	1009.757624487092	1363.434439832717	458.001836112209	935.063685791682	1434.528347694797	637.827535717407	907.177997302679	1496.686746885141	457.104781811764	952.049699549113	940.468859560213	590.201374100070	941.026227607099	960.733320714419	316.810391289973	974.055172266400	731.983202276944	573.208414048365	881.064809887887	631.217563778534	634.665619714388	958.448854024447	565.535688966991	564.023249382460	943.251900238712	460.793940197303	582.059826172582	1001.518890484153	762.267852466023	349.213342768004	926.221879088489	638.580727139373	287.585801856875	1017.309479034055	568.332868781836	351.645241693150	1024.165812348660	497.421455037857	361.205540349710	1001.476777547363	424.206954190522	352.545634192331	920.366617710672	305.436966431647	297.732783278157	975.334850012537	196.652823161373	369.718836525123	871.670004495646	392.726732590361	583.984375542097	754.958721854054	339.951497325061	641.541006295587	752.511285262779	231.408573605034	587.196614810084	557.008350244649	136.393058177607	556.248442503796	733.589983407361	112.788344031765	590.082732011340	628.176564692897	86.133493118535	625.402852071142	821.317080493263	33.214662757397	609.036322665289	852.594848202433	38.198241647965	407.200623205751	929.502211651976	35.745870747890	329.029072080408	1011.332561614550	97.082677691652	358.487874572531	1141.042090266886	45.092887600993	335.617484861626	797.829795756619	1108.365996942296	177.697816599903	881.434975598628	859.539634352773	162.332113832442	960.286527988364	1093.684448415997	763.937110071348	1187.584313433736	979.998437779275	731.118898605045	
41	43.014285714286	728.604190924416	1012.597199637680	471.641109956778	903.373802225463	1440.739521556254	300.994001853249	1010.444840805562	1363.156384520229	455.973272609951	934.512845521057	1434.780676342620	635.109532102566	908.194226472654	1496.671469260253	453.952405782003	951.010397242057	940.601164024852	588.561639672864	941.122632309731	960.389478209404	315.183018664947	978.447391971388	733.737145895825	571.935206141327	888.532740823899	631.032561020766	633.570782373889	967.740383770317	566.679838921815	562.925734327771	953.857123328794	460.523358214753	581.713902822600	1000.370127560067	761.141790140616	346.878694665406	923.726550541861	638.273813008811	285.907263208097	1014.233949737285	567.494443424196	349.984542153503	1020.487897713714	496.721155998159	359.819963285234	997.537650475230	423.543105060354	351.371648264267	915.941812207265	305.054962731249	296.714019969681	970.035971934732	196.233618856085	369.268639765485	880.333286842688	393.240461463720	583.526726866815	761.994444790890	344.203452633154	641.164228291456	756.122272676461	235.778822719375	587.253208988757	558.085664320112	149.219175340680	556.312358949407	733.110106808999	116.812968142265	590.876875537207	626.336564782611	95.051200970758	625.318516794164	816.035844348263	32.161885817249	609.490771683347	846.341185642970	38.143337360764	407.095613781953	923.253742351081	35.645545681152	328.897658556740	1005.173839610967	96.864780899789	358.423545072283	1134.894335749072	44.641621367619	335.611299727897	802.066307960236	1108.136592484391	172.289122738796	893.114585897610	861.902376091445	157.177318157287	950.117415022188	1093.084562800633	761.488537441864	1170.802578682746	964.793125380747	734.551216085130	
42	43.026642857143	727.798825114405	1012.591269145565	469.206533501182	905.417856567690	1440.245147176167	298.137093683596	1011.030071467508	1362.745855985709	454.119634739850	933.896336328566	1434.909633801334	632.568300348748	909.177721099362	1496.554168021842	450.977751724183	949.921301144737	940.652681163802	587.101192515165	941.012653532764	960.022624986070	313.675331336325	982.959136396888	735.754725422072	570.504994809427	896.462701475218	631.056992405655	632.432077803341	977.360446446980	568.202106888517	561.598873320543	964.944865288264	460.685460835049	581.004979769526	999.027706740087	760.081375079904	344.841392571365	921.310546486601	638.019443509699	284.305031837425	1011.146168624125	566.713655654598	348.519635936032	1016.791967301760	496.019696947266	358.526833893394	993.576360970992	422.883799356128	350.256899391101	911.491923755357	304.687112437907	295.761584522065	964.738653745401	195.831679276130	368.847911843663	889.586811038787	394.060840002236	582.824953201529	769.785975385772	348.742851597311	640.613120216649	760.449124636154	240.582657069672	587.107952263574	560.274037063400	162.698448623995	556.229456608735	733.343936564513	121.474793022022	591.559966293264	625.388015654042	104.756502899824	625.125281437850	811.206226864209	31.159866946195	609.920489848660	840.105894847238	38.095862070945	406.983537203531	917.022198888302	35.561582166701	328.764587881869	999.019613570158	96.674961938834	358.351570566367	1128.747709147256	44.248767705477	335.585062771857	806.526887797697	1107.777164654096	166.835046884989	905.044890739061	864.415215439193	151.996849857828	939.816678835399	1092.543509206165	758.947645221017	1152.648740447373	949.886480826211	737.858978789968	
